# xmcd
#
# Track frame offsets:
#	150
#	13862
#	31101
#	48961
#	64901
#	81495
#	95735
#	108984
#	124251
#	140142
#	153854
#	171093
#	188953
#	204893
#	221487
#	235727
#	248976
#	264243
#
# Disc length: 3735
#
# Revision: 4
# Processed by: cddbd v1.5.2PL0 Copyright (c) Steve Scherf et al.
# Submitted via: kJams Pro (development) 1.0patch52.29
#
DISCID=fb0e9512
DTITLE=Various Artist - PHM0804C – Country April 2008
DYEAR=2008
DGENRE=Karaoke
TTITLE0=Swift, Taylor - Picture To Burn
TTITLE1=Emerson Drive - You Still Own Me
TTITLE2=Otto, James - Just Got Started Lovin' You
TTITLE3=Nichols, Joe - It Ain't No Crime
TTITLE4=Turner, Josh with Trisha Yearwood - Another Try
TTITLE5=Pickler, Kellie - Things That Never Cross A Man's Mind
TTITLE6=Chesnutt, Mark - Rolllin' with The Flow
TTITLE7=Owen, Jake - Something About A Woman
TTITLE8=Carter's Chord - Young Love
TTITLE9=Swift, Taylor - Picture To Burn wvocal
TTITLE10=Emerson Drive - You Still Own Me wvocal
TTITLE11=Otto, James - Just Got Started Lovin' You wvocal
TTITLE12=Nichols, Joe - It Ain't No Crime wvocal
TTITLE13=Turner, Josh with Trisha Yearwood - Another Try wvocal
TTITLE14=Pickler, Kellie - Things That Never Cross A Man's Mind wvocal
TTITLE15=Chesnutt, Mark - Rollin' With The Flow wvocal
TTITLE16=Owen, Jake - Somehing About A Woman wvocal
TTITLE17=Carter's Chord - Young Love wvocal
EXTD=
EXTT0=
EXTT1=
EXTT2=
EXTT3=
EXTT4=
EXTT5=
EXTT6=
EXTT7=
EXTT8=
EXTT9=
EXTT10=
EXTT11=
EXTT12=
EXTT13=
EXTT14=
EXTT15=
EXTT16=
EXTT17=
PLAYORDER=
